<svg width="20" height="20" viewBox="0 0 20 20" fill="none" xmlns="http://www.w3.org/2000/svg">
<path fill-rule="evenodd" clip-rule="evenodd" d="M18.4849 6.46497C19.8521 5.09778 19.8521 2.88196 18.4849 1.51477C17.1182 0.148071 14.9023 0.148071 13.5352 1.51477L10 5.05042L6.46484 1.51526C5.09766 0.148071 2.88184 0.148071 1.51465 1.51526C0.147949 2.88196 0.147949 5.09778 1.51465 6.46497L5.0498 10.0001L1.51465 13.5358C0.147461 14.9025 0.147461 17.1188 1.51465 18.4855C2.88135 19.8522 5.09766 19.8522 6.46436 18.4855L10 14.9498L13.5356 18.4855C14.9023 19.8527 17.1187 19.8527 18.4854 18.4855C19.8521 17.1188 19.8521 14.9025 18.4854 13.5358L14.9497 10.0001L18.4849 6.46497Z" fill="#1f3c88"/>
</svg>
